<mxfile host="Electron" agent="Mozilla/5.0 (Windows NT 10.0; Win64; x64) AppleWebKit/537.36 (KHTML, like Gecko) draw.io/26.2.15 Chrome/134.0.6998.205 Electron/35.2.1 Safari/537.36" version="26.2.15">
  <diagram name="Σελίδα-1" id="5oCdJDuaBm8mIfp7INVe">
    <mxGraphModel dx="920" dy="2053" grid="1" gridSize="10" guides="1" tooltips="1" connect="1" arrows="1" fold="1" page="1" pageScale="1" pageWidth="827" pageHeight="1169" math="0" shadow="0">
      <root>
        <mxCell id="0" />
        <mxCell id="1" parent="0" />
        <mxCell id="jHklKIk9gbXlQ0zHq7cT-1" value="" style="shape=umlLifeline;perimeter=lifelinePerimeter;whiteSpace=wrap;html=1;container=1;dropTarget=0;collapsible=0;recursiveResize=0;outlineConnect=0;portConstraint=eastwest;newEdgeStyle={&quot;curved&quot;:0,&quot;rounded&quot;:0};participant=umlActor;" parent="1" vertex="1">
          <mxGeometry x="30" y="-240" width="20" height="2140" as="geometry" />
        </mxCell>
        <mxCell id="jHklKIk9gbXlQ0zHq7cT-2" value="" style="html=1;points=[[0,0,0,0,5],[0,1,0,0,-5],[1,0,0,0,5],[1,1,0,0,-5]];perimeter=orthogonalPerimeter;outlineConnect=0;targetShapes=umlLifeline;portConstraint=eastwest;newEdgeStyle={&quot;curved&quot;:0,&quot;rounded&quot;:0};" parent="jHklKIk9gbXlQ0zHq7cT-1" vertex="1">
          <mxGeometry x="5" y="60" width="10" height="1990" as="geometry" />
        </mxCell>
        <mxCell id="jHklKIk9gbXlQ0zHq7cT-3" value="clicks" style="html=1;verticalAlign=bottom;endArrow=block;curved=0;rounded=0;" parent="1" edge="1">
          <mxGeometry width="80" relative="1" as="geometry">
            <mxPoint x="50" y="80" as="sourcePoint" />
            <mxPoint x="160" y="80" as="targetPoint" />
          </mxGeometry>
        </mxCell>
        <mxCell id="jHklKIk9gbXlQ0zHq7cT-4" value="Math Button" style="shape=umlLifeline;perimeter=lifelinePerimeter;whiteSpace=wrap;html=1;container=1;dropTarget=0;collapsible=0;recursiveResize=0;outlineConnect=0;portConstraint=eastwest;newEdgeStyle={&quot;curved&quot;:0,&quot;rounded&quot;:0};" parent="1" vertex="1">
          <mxGeometry x="120" y="20" width="100" height="1870" as="geometry" />
        </mxCell>
        <mxCell id="jHklKIk9gbXlQ0zHq7cT-5" value="" style="html=1;points=[[0,0,0,0,5],[0,1,0,0,-5],[1,0,0,0,5],[1,1,0,0,-5]];perimeter=orthogonalPerimeter;outlineConnect=0;targetShapes=umlLifeline;portConstraint=eastwest;newEdgeStyle={&quot;curved&quot;:0,&quot;rounded&quot;:0};" parent="jHklKIk9gbXlQ0zHq7cT-4" vertex="1">
          <mxGeometry x="45" y="60" width="10" height="140" as="geometry" />
        </mxCell>
        <mxCell id="jHklKIk9gbXlQ0zHq7cT-6" value="Canvas" style="shape=umlLifeline;perimeter=lifelinePerimeter;whiteSpace=wrap;html=1;container=1;dropTarget=0;collapsible=0;recursiveResize=0;outlineConnect=0;portConstraint=eastwest;newEdgeStyle={&quot;curved&quot;:0,&quot;rounded&quot;:0};" parent="1" vertex="1">
          <mxGeometry x="630" y="-230" width="100" height="2040" as="geometry" />
        </mxCell>
        <mxCell id="jHklKIk9gbXlQ0zHq7cT-7" value="" style="html=1;points=[[0,0,0,0,5],[0,1,0,0,-5],[1,0,0,0,5],[1,1,0,0,-5]];perimeter=orthogonalPerimeter;outlineConnect=0;targetShapes=umlLifeline;portConstraint=eastwest;newEdgeStyle={&quot;curved&quot;:0,&quot;rounded&quot;:0};" parent="jHklKIk9gbXlQ0zHq7cT-6" vertex="1">
          <mxGeometry x="45" y="50" width="10" height="1740" as="geometry" />
        </mxCell>
        <mxCell id="jHklKIk9gbXlQ0zHq7cT-8" value="addMathBlock()" style="html=1;verticalAlign=bottom;endArrow=block;curved=0;rounded=0;" parent="1" edge="1">
          <mxGeometry width="80" relative="1" as="geometry">
            <mxPoint x="180" y="110" as="sourcePoint" />
            <mxPoint x="660" y="110" as="targetPoint" />
          </mxGeometry>
        </mxCell>
        <mxCell id="jHklKIk9gbXlQ0zHq7cT-21" value="If Button" style="shape=umlLifeline;perimeter=lifelinePerimeter;whiteSpace=wrap;html=1;container=1;dropTarget=0;collapsible=0;recursiveResize=0;outlineConnect=0;portConstraint=eastwest;newEdgeStyle={&quot;curved&quot;:0,&quot;rounded&quot;:0};" parent="1" vertex="1">
          <mxGeometry x="210" y="680" width="100" height="230" as="geometry" />
        </mxCell>
        <mxCell id="jHklKIk9gbXlQ0zHq7cT-73" value="" style="html=1;points=[[0,0,0,0,5],[0,1,0,0,-5],[1,0,0,0,5],[1,1,0,0,-5]];perimeter=orthogonalPerimeter;outlineConnect=0;targetShapes=umlLifeline;portConstraint=eastwest;newEdgeStyle={&quot;curved&quot;:0,&quot;rounded&quot;:0};" parent="jHklKIk9gbXlQ0zHq7cT-21" vertex="1">
          <mxGeometry x="45" y="60" width="10" height="170" as="geometry" />
        </mxCell>
        <mxCell id="jHklKIk9gbXlQ0zHq7cT-25" value="End Button" style="shape=umlLifeline;perimeter=lifelinePerimeter;whiteSpace=wrap;html=1;container=1;dropTarget=0;collapsible=0;recursiveResize=0;outlineConnect=0;portConstraint=eastwest;newEdgeStyle={&quot;curved&quot;:0,&quot;rounded&quot;:0};" parent="1" vertex="1">
          <mxGeometry x="285" y="470" width="100" height="810" as="geometry" />
        </mxCell>
        <mxCell id="jHklKIk9gbXlQ0zHq7cT-67" value="" style="html=1;points=[[0,0,0,0,5],[0,1,0,0,-5],[1,0,0,0,5],[1,1,0,0,-5]];perimeter=orthogonalPerimeter;outlineConnect=0;targetShapes=umlLifeline;portConstraint=eastwest;newEdgeStyle={&quot;curved&quot;:0,&quot;rounded&quot;:0};" parent="jHklKIk9gbXlQ0zHq7cT-25" vertex="1">
          <mxGeometry x="45" y="50" width="10" height="130" as="geometry" />
        </mxCell>
        <mxCell id="jHklKIk9gbXlQ0zHq7cT-26" value="Start Button" style="shape=umlLifeline;perimeter=lifelinePerimeter;whiteSpace=wrap;html=1;container=1;dropTarget=0;collapsible=0;recursiveResize=0;outlineConnect=0;portConstraint=eastwest;newEdgeStyle={&quot;curved&quot;:0,&quot;rounded&quot;:0};" parent="1" vertex="1">
          <mxGeometry x="240" y="240" width="100" height="200" as="geometry" />
        </mxCell>
        <mxCell id="jHklKIk9gbXlQ0zHq7cT-28" value="clicks" style="html=1;verticalAlign=bottom;endArrow=block;curved=0;rounded=0;" parent="1" edge="1">
          <mxGeometry x="-0.3913" width="80" relative="1" as="geometry">
            <mxPoint x="50" y="300.00000000000006" as="sourcePoint" />
            <mxPoint x="280" y="300.00000000000006" as="targetPoint" />
            <mxPoint x="-1" as="offset" />
          </mxGeometry>
        </mxCell>
        <mxCell id="jHklKIk9gbXlQ0zHq7cT-30" value="alt" style="shape=umlFrame;whiteSpace=wrap;html=1;pointerEvents=0;" parent="1" vertex="1">
          <mxGeometry x="30" y="230" width="650" height="220" as="geometry" />
        </mxCell>
        <mxCell id="jHklKIk9gbXlQ0zHq7cT-31" value="&lt;span style=&quot;padding: 0px 0px 0px 2px;&quot;&gt;&lt;span style=&quot;font-family: Consolas; font-size: 10pt; white-space-collapse: preserve;&quot;&gt;addStartBlock()&lt;/span&gt;&lt;/span&gt;" style="html=1;verticalAlign=bottom;endArrow=block;curved=0;rounded=0;" parent="1" edge="1">
          <mxGeometry x="-0.1385" width="80" relative="1" as="geometry">
            <mxPoint x="295" y="330" as="sourcePoint" />
            <mxPoint x="670" y="330" as="targetPoint" />
            <mxPoint as="offset" />
          </mxGeometry>
        </mxCell>
        <mxCell id="jHklKIk9gbXlQ0zHq7cT-32" value="clicks" style="html=1;verticalAlign=bottom;endArrow=block;curved=0;rounded=0;" parent="1" edge="1">
          <mxGeometry x="-0.3333" width="80" relative="1" as="geometry">
            <mxPoint x="50" y="520" as="sourcePoint" />
            <mxPoint x="320" y="520" as="targetPoint" />
            <Array as="points">
              <mxPoint x="220" y="520" />
            </Array>
            <mxPoint as="offset" />
          </mxGeometry>
        </mxCell>
        <mxCell id="jHklKIk9gbXlQ0zHq7cT-34" value="&lt;span style=&quot;padding: 0px 0px 0px 2px;&quot;&gt;&lt;span style=&quot;font-family: Consolas; font-size: 10pt; white-space-collapse: preserve;&quot;&gt;addEndBlock()&lt;/span&gt;&lt;/span&gt;" style="html=1;verticalAlign=bottom;endArrow=block;curved=0;rounded=0;" parent="1" edge="1">
          <mxGeometry x="-0.4074" width="80" relative="1" as="geometry">
            <mxPoint x="350" y="549.23" as="sourcePoint" />
            <mxPoint x="670" y="550" as="targetPoint" />
            <mxPoint as="offset" />
          </mxGeometry>
        </mxCell>
        <mxCell id="jHklKIk9gbXlQ0zHq7cT-35" value="alt" style="shape=umlFrame;whiteSpace=wrap;html=1;pointerEvents=0;" parent="1" vertex="1">
          <mxGeometry x="40" y="460" width="640" height="190" as="geometry" />
        </mxCell>
        <mxCell id="jHklKIk9gbXlQ0zHq7cT-36" value="clicks" style="html=1;verticalAlign=bottom;endArrow=block;curved=0;rounded=0;" parent="1" edge="1">
          <mxGeometry width="80" relative="1" as="geometry">
            <mxPoint x="40" y="740" as="sourcePoint" />
            <mxPoint x="240" y="740.77" as="targetPoint" />
            <Array as="points">
              <mxPoint x="210" y="740" />
            </Array>
          </mxGeometry>
        </mxCell>
        <mxCell id="jHklKIk9gbXlQ0zHq7cT-37" value="alt" style="shape=umlFrame;whiteSpace=wrap;html=1;pointerEvents=0;" parent="1" vertex="1">
          <mxGeometry x="30" y="670" width="650" height="250" as="geometry" />
        </mxCell>
        <mxCell id="jHklKIk9gbXlQ0zHq7cT-39" value="&lt;span style=&quot;padding: 0px 0px 0px 2px;&quot;&gt;&lt;span style=&quot;font-family: Consolas; font-size: 10pt; white-space-collapse: preserve;&quot;&gt;addIfBlock()&lt;/span&gt;&lt;/span&gt;" style="html=1;verticalAlign=bottom;endArrow=block;curved=0;rounded=0;" parent="1" edge="1">
          <mxGeometry x="-0.4074" width="80" relative="1" as="geometry">
            <mxPoint x="270" y="764.23" as="sourcePoint" />
            <mxPoint x="670" y="764" as="targetPoint" />
            <mxPoint as="offset" />
          </mxGeometry>
        </mxCell>
        <mxCell id="jHklKIk9gbXlQ0zHq7cT-42" value="&lt;span style=&quot;padding: 0px 0px 0px 2px;&quot;&gt;&lt;span style=&quot;font-family: Consolas; font-size: 10pt; white-space-collapse: preserve;&quot;&gt;addEndIfBlock()&lt;/span&gt;&lt;/span&gt;" style="html=1;verticalAlign=bottom;endArrow=block;curved=0;rounded=0;" parent="1" edge="1">
          <mxGeometry x="-0.4074" width="80" relative="1" as="geometry">
            <mxPoint x="270" y="1030" as="sourcePoint" />
            <mxPoint x="670" y="1030" as="targetPoint" />
            <mxPoint as="offset" />
          </mxGeometry>
        </mxCell>
        <mxCell id="jHklKIk9gbXlQ0zHq7cT-43" value="alt" style="shape=umlFrame;whiteSpace=wrap;html=1;pointerEvents=0;" parent="1" vertex="1">
          <mxGeometry x="40" y="930" width="640" height="250" as="geometry" />
        </mxCell>
        <mxCell id="jHklKIk9gbXlQ0zHq7cT-60" value="Start Block" style="shape=umlLifeline;perimeter=lifelinePerimeter;whiteSpace=wrap;html=1;container=1;dropTarget=0;collapsible=0;recursiveResize=0;outlineConnect=0;portConstraint=eastwest;newEdgeStyle={&quot;curved&quot;:0,&quot;rounded&quot;:0};" parent="1" vertex="1">
          <mxGeometry x="414" y="240" width="90" height="200" as="geometry" />
        </mxCell>
        <mxCell id="jHklKIk9gbXlQ0zHq7cT-65" value="" style="html=1;points=[[0,0,0,0,5],[0,1,0,0,-5],[1,0,0,0,5],[1,1,0,0,-5]];perimeter=orthogonalPerimeter;outlineConnect=0;targetShapes=umlLifeline;portConstraint=eastwest;newEdgeStyle={&quot;curved&quot;:0,&quot;rounded&quot;:0};" parent="jHklKIk9gbXlQ0zHq7cT-60" vertex="1">
          <mxGeometry x="40" y="110" width="10" height="30" as="geometry" />
        </mxCell>
        <mxCell id="jHklKIk9gbXlQ0zHq7cT-61" value="New Start Block" style="html=1;verticalAlign=bottom;endArrow=block;curved=0;rounded=0;" parent="1" edge="1">
          <mxGeometry width="80" relative="1" as="geometry">
            <mxPoint x="670" y="359" as="sourcePoint" />
            <mxPoint x="470" y="359.23" as="targetPoint" />
          </mxGeometry>
        </mxCell>
        <mxCell id="jHklKIk9gbXlQ0zHq7cT-64" value="" style="html=1;points=[[0,0,0,0,5],[0,1,0,0,-5],[1,0,0,0,5],[1,1,0,0,-5]];perimeter=orthogonalPerimeter;outlineConnect=0;targetShapes=umlLifeline;portConstraint=eastwest;newEdgeStyle={&quot;curved&quot;:0,&quot;rounded&quot;:0};" parent="1" vertex="1">
          <mxGeometry x="285" y="300" width="10" height="150" as="geometry" />
        </mxCell>
        <mxCell id="jHklKIk9gbXlQ0zHq7cT-68" value="End Block" style="shape=umlLifeline;perimeter=lifelinePerimeter;whiteSpace=wrap;html=1;container=1;dropTarget=0;collapsible=0;recursiveResize=0;outlineConnect=0;portConstraint=eastwest;newEdgeStyle={&quot;curved&quot;:0,&quot;rounded&quot;:0};" parent="1" vertex="1">
          <mxGeometry x="420" y="470" width="100" height="170" as="geometry" />
        </mxCell>
        <mxCell id="jHklKIk9gbXlQ0zHq7cT-69" value="" style="html=1;points=[[0,0,0,0,5],[0,1,0,0,-5],[1,0,0,0,5],[1,1,0,0,-5]];perimeter=orthogonalPerimeter;outlineConnect=0;targetShapes=umlLifeline;portConstraint=eastwest;newEdgeStyle={&quot;curved&quot;:0,&quot;rounded&quot;:0};" parent="jHklKIk9gbXlQ0zHq7cT-68" vertex="1">
          <mxGeometry x="45" y="100" width="10" height="20" as="geometry" />
        </mxCell>
        <mxCell id="jHklKIk9gbXlQ0zHq7cT-70" value="New End Block" style="html=1;verticalAlign=bottom;endArrow=block;curved=0;rounded=0;" parent="1" edge="1">
          <mxGeometry width="80" relative="1" as="geometry">
            <mxPoint x="670" y="570" as="sourcePoint" />
            <mxPoint x="480" y="570" as="targetPoint" />
          </mxGeometry>
        </mxCell>
        <mxCell id="jHklKIk9gbXlQ0zHq7cT-74" value="If Block" style="shape=umlLifeline;perimeter=lifelinePerimeter;whiteSpace=wrap;html=1;container=1;dropTarget=0;collapsible=0;recursiveResize=0;outlineConnect=0;portConstraint=eastwest;newEdgeStyle={&quot;curved&quot;:0,&quot;rounded&quot;:0};" parent="1" vertex="1">
          <mxGeometry x="350" y="680" width="100" height="230" as="geometry" />
        </mxCell>
        <mxCell id="jHklKIk9gbXlQ0zHq7cT-75" value="" style="html=1;points=[[0,0,0,0,5],[0,1,0,0,-5],[1,0,0,0,5],[1,1,0,0,-5]];perimeter=orthogonalPerimeter;outlineConnect=0;targetShapes=umlLifeline;portConstraint=eastwest;newEdgeStyle={&quot;curved&quot;:0,&quot;rounded&quot;:0};" parent="jHklKIk9gbXlQ0zHq7cT-74" vertex="1">
          <mxGeometry x="45" y="100" width="10" height="130" as="geometry" />
        </mxCell>
        <mxCell id="jHklKIk9gbXlQ0zHq7cT-76" value="New If Block" style="html=1;verticalAlign=bottom;endArrow=block;curved=0;rounded=0;" parent="1" edge="1">
          <mxGeometry width="80" relative="1" as="geometry">
            <mxPoint x="670" y="798" as="sourcePoint" />
            <mxPoint x="410" y="798" as="targetPoint" />
          </mxGeometry>
        </mxCell>
        <mxCell id="jHklKIk9gbXlQ0zHq7cT-78" value="insert values/var" style="html=1;verticalAlign=bottom;endArrow=block;curved=0;rounded=0;" parent="1" edge="1">
          <mxGeometry x="-0.6471" width="80" relative="1" as="geometry">
            <mxPoint x="50" y="820" as="sourcePoint" />
            <mxPoint x="390" y="820" as="targetPoint" />
            <mxPoint as="offset" />
          </mxGeometry>
        </mxCell>
        <mxCell id="jHklKIk9gbXlQ0zHq7cT-79" value="clicks" style="html=1;verticalAlign=bottom;endArrow=block;curved=0;rounded=0;" parent="1" edge="1">
          <mxGeometry width="80" relative="1" as="geometry">
            <mxPoint x="40" y="1300" as="sourcePoint" />
            <mxPoint x="230" y="1300" as="targetPoint" />
          </mxGeometry>
        </mxCell>
        <mxCell id="jHklKIk9gbXlQ0zHq7cT-80" value="EndIf Button" style="shape=umlLifeline;perimeter=lifelinePerimeter;whiteSpace=wrap;html=1;container=1;dropTarget=0;collapsible=0;recursiveResize=0;outlineConnect=0;portConstraint=eastwest;newEdgeStyle={&quot;curved&quot;:0,&quot;rounded&quot;:0};" parent="1" vertex="1">
          <mxGeometry x="210" y="935" width="100" height="240" as="geometry" />
        </mxCell>
        <mxCell id="jHklKIk9gbXlQ0zHq7cT-82" value="" style="html=1;points=[[0,0,0,0,5],[0,1,0,0,-5],[1,0,0,0,5],[1,1,0,0,-5]];perimeter=orthogonalPerimeter;outlineConnect=0;targetShapes=umlLifeline;portConstraint=eastwest;newEdgeStyle={&quot;curved&quot;:0,&quot;rounded&quot;:0};" parent="jHklKIk9gbXlQ0zHq7cT-80" vertex="1">
          <mxGeometry x="45" y="70" width="10" height="170" as="geometry" />
        </mxCell>
        <mxCell id="jHklKIk9gbXlQ0zHq7cT-83" value="EndIf Block" style="shape=umlLifeline;perimeter=lifelinePerimeter;whiteSpace=wrap;html=1;container=1;dropTarget=0;collapsible=0;recursiveResize=0;outlineConnect=0;portConstraint=eastwest;newEdgeStyle={&quot;curved&quot;:0,&quot;rounded&quot;:0};" parent="1" vertex="1">
          <mxGeometry x="350" y="939" width="100" height="230" as="geometry" />
        </mxCell>
        <mxCell id="jHklKIk9gbXlQ0zHq7cT-84" value="" style="html=1;points=[[0,0,0,0,5],[0,1,0,0,-5],[1,0,0,0,5],[1,1,0,0,-5]];perimeter=orthogonalPerimeter;outlineConnect=0;targetShapes=umlLifeline;portConstraint=eastwest;newEdgeStyle={&quot;curved&quot;:0,&quot;rounded&quot;:0};" parent="jHklKIk9gbXlQ0zHq7cT-83" vertex="1">
          <mxGeometry x="45" y="110" width="10" height="30" as="geometry" />
        </mxCell>
        <mxCell id="jHklKIk9gbXlQ0zHq7cT-85" value="New EndIf Block" style="html=1;verticalAlign=bottom;endArrow=block;curved=0;rounded=0;" parent="1" edge="1">
          <mxGeometry width="80" relative="1" as="geometry">
            <mxPoint x="669.5" y="1054.29" as="sourcePoint" />
            <mxPoint x="413.5" y="1054.52" as="targetPoint" />
          </mxGeometry>
        </mxCell>
        <mxCell id="jHklKIk9gbXlQ0zHq7cT-88" value="alt" style="shape=umlFrame;whiteSpace=wrap;html=1;pointerEvents=0;" parent="1" vertex="1">
          <mxGeometry x="40" y="1240" width="640" height="290" as="geometry" />
        </mxCell>
        <mxCell id="jHklKIk9gbXlQ0zHq7cT-89" value="While Button" style="shape=umlLifeline;perimeter=lifelinePerimeter;whiteSpace=wrap;html=1;container=1;dropTarget=0;collapsible=0;recursiveResize=0;outlineConnect=0;portConstraint=eastwest;newEdgeStyle={&quot;curved&quot;:0,&quot;rounded&quot;:0};" parent="1" vertex="1">
          <mxGeometry x="200" y="1250" width="100" height="270" as="geometry" />
        </mxCell>
        <mxCell id="jHklKIk9gbXlQ0zHq7cT-90" value="" style="html=1;points=[[0,0,0,0,5],[0,1,0,0,-5],[1,0,0,0,5],[1,1,0,0,-5]];perimeter=orthogonalPerimeter;outlineConnect=0;targetShapes=umlLifeline;portConstraint=eastwest;newEdgeStyle={&quot;curved&quot;:0,&quot;rounded&quot;:0};" parent="jHklKIk9gbXlQ0zHq7cT-89" vertex="1">
          <mxGeometry x="45" y="50" width="10" height="220" as="geometry" />
        </mxCell>
        <mxCell id="jHklKIk9gbXlQ0zHq7cT-91" value="clicks" style="html=1;verticalAlign=bottom;endArrow=block;curved=0;rounded=0;" parent="1" edge="1">
          <mxGeometry width="80" relative="1" as="geometry">
            <mxPoint x="50" y="1004.29" as="sourcePoint" />
            <mxPoint x="250" y="1005.06" as="targetPoint" />
            <Array as="points">
              <mxPoint x="220" y="1004.29" />
            </Array>
          </mxGeometry>
        </mxCell>
        <mxCell id="jHklKIk9gbXlQ0zHq7cT-92" value="&lt;span style=&quot;padding: 0px 0px 0px 2px;&quot;&gt;&lt;span style=&quot;font-family: Consolas; font-size: 10pt; white-space-collapse: preserve;&quot;&gt;addWhileBlock()&lt;/span&gt;&lt;/span&gt;" style="html=1;verticalAlign=bottom;endArrow=block;curved=0;rounded=0;" parent="1" edge="1">
          <mxGeometry x="-0.4074" width="80" relative="1" as="geometry">
            <mxPoint x="260" y="1320" as="sourcePoint" />
            <mxPoint x="660" y="1320" as="targetPoint" />
            <mxPoint as="offset" />
          </mxGeometry>
        </mxCell>
        <mxCell id="jHklKIk9gbXlQ0zHq7cT-93" value="While Block" style="shape=umlLifeline;perimeter=lifelinePerimeter;whiteSpace=wrap;html=1;container=1;dropTarget=0;collapsible=0;recursiveResize=0;outlineConnect=0;portConstraint=eastwest;newEdgeStyle={&quot;curved&quot;:0,&quot;rounded&quot;:0};" parent="1" vertex="1">
          <mxGeometry x="350" y="1250" width="100" height="250" as="geometry" />
        </mxCell>
        <mxCell id="jHklKIk9gbXlQ0zHq7cT-94" value="" style="html=1;points=[[0,0,0,0,5],[0,1,0,0,-5],[1,0,0,0,5],[1,1,0,0,-5]];perimeter=orthogonalPerimeter;outlineConnect=0;targetShapes=umlLifeline;portConstraint=eastwest;newEdgeStyle={&quot;curved&quot;:0,&quot;rounded&quot;:0};" parent="jHklKIk9gbXlQ0zHq7cT-93" vertex="1">
          <mxGeometry x="45" y="110" width="10" height="140" as="geometry" />
        </mxCell>
        <mxCell id="jHklKIk9gbXlQ0zHq7cT-95" value="New While Block" style="html=1;verticalAlign=bottom;endArrow=block;curved=0;rounded=0;" parent="1" edge="1">
          <mxGeometry width="80" relative="1" as="geometry">
            <mxPoint x="670" y="1364" as="sourcePoint" />
            <mxPoint x="410" y="1364.0900000000001" as="targetPoint" />
          </mxGeometry>
        </mxCell>
        <mxCell id="jHklKIk9gbXlQ0zHq7cT-96" value="insert values/var" style="html=1;verticalAlign=bottom;endArrow=block;curved=0;rounded=0;" parent="1" edge="1">
          <mxGeometry x="-0.6765" width="80" relative="1" as="geometry">
            <mxPoint x="45" y="1380" as="sourcePoint" />
            <mxPoint x="385" y="1380" as="targetPoint" />
            <mxPoint x="1" as="offset" />
          </mxGeometry>
        </mxCell>
        <mxCell id="jHklKIk9gbXlQ0zHq7cT-98" value="alt" style="shape=umlFrame;whiteSpace=wrap;html=1;pointerEvents=0;" parent="1" vertex="1">
          <mxGeometry x="40" y="1590" width="640" height="200" as="geometry" />
        </mxCell>
        <mxCell id="jHklKIk9gbXlQ0zHq7cT-99" value="EndWhile Button" style="shape=umlLifeline;perimeter=lifelinePerimeter;whiteSpace=wrap;html=1;container=1;dropTarget=0;collapsible=0;recursiveResize=0;outlineConnect=0;portConstraint=eastwest;newEdgeStyle={&quot;curved&quot;:0,&quot;rounded&quot;:0};" parent="1" vertex="1">
          <mxGeometry x="210" y="1610" width="100" height="180" as="geometry" />
        </mxCell>
        <mxCell id="jHklKIk9gbXlQ0zHq7cT-100" value="" style="html=1;points=[[0,0,0,0,5],[0,1,0,0,-5],[1,0,0,0,5],[1,1,0,0,-5]];perimeter=orthogonalPerimeter;outlineConnect=0;targetShapes=umlLifeline;portConstraint=eastwest;newEdgeStyle={&quot;curved&quot;:0,&quot;rounded&quot;:0};" parent="jHklKIk9gbXlQ0zHq7cT-99" vertex="1">
          <mxGeometry x="45" y="50" width="10" height="130" as="geometry" />
        </mxCell>
        <mxCell id="jHklKIk9gbXlQ0zHq7cT-101" value="clicks" style="html=1;verticalAlign=bottom;endArrow=block;curved=0;rounded=0;" parent="1" edge="1">
          <mxGeometry width="80" relative="1" as="geometry">
            <mxPoint x="50" y="1670" as="sourcePoint" />
            <mxPoint x="240" y="1670" as="targetPoint" />
          </mxGeometry>
        </mxCell>
        <mxCell id="jHklKIk9gbXlQ0zHq7cT-102" value="While Block" style="shape=umlLifeline;perimeter=lifelinePerimeter;whiteSpace=wrap;html=1;container=1;dropTarget=0;collapsible=0;recursiveResize=0;outlineConnect=0;portConstraint=eastwest;newEdgeStyle={&quot;curved&quot;:0,&quot;rounded&quot;:0};" parent="1" vertex="1">
          <mxGeometry x="350" y="1610" width="100" height="230" as="geometry" />
        </mxCell>
        <mxCell id="jHklKIk9gbXlQ0zHq7cT-103" value="" style="html=1;points=[[0,0,0,0,5],[0,1,0,0,-5],[1,0,0,0,5],[1,1,0,0,-5]];perimeter=orthogonalPerimeter;outlineConnect=0;targetShapes=umlLifeline;portConstraint=eastwest;newEdgeStyle={&quot;curved&quot;:0,&quot;rounded&quot;:0};" parent="jHklKIk9gbXlQ0zHq7cT-102" vertex="1">
          <mxGeometry x="45" y="110" width="10" height="30" as="geometry" />
        </mxCell>
        <mxCell id="jHklKIk9gbXlQ0zHq7cT-104" value="&lt;span style=&quot;padding: 0px 0px 0px 2px;&quot;&gt;&lt;span style=&quot;font-family: Consolas; font-size: 10pt; white-space-collapse: preserve;&quot;&gt;addEndWhileBlock()&lt;/span&gt;&lt;/span&gt;" style="html=1;verticalAlign=bottom;endArrow=block;curved=0;rounded=0;" parent="1" edge="1">
          <mxGeometry x="-0.4074" width="80" relative="1" as="geometry">
            <mxPoint x="270" y="1689.29" as="sourcePoint" />
            <mxPoint x="670" y="1689.29" as="targetPoint" />
            <mxPoint as="offset" />
          </mxGeometry>
        </mxCell>
        <mxCell id="jHklKIk9gbXlQ0zHq7cT-107" value="New EndWhile Block" style="html=1;verticalAlign=bottom;endArrow=block;curved=0;rounded=0;" parent="1" edge="1">
          <mxGeometry width="80" relative="1" as="geometry">
            <mxPoint x="664" y="1750" as="sourcePoint" />
            <mxPoint x="414" y="1750.0900000000001" as="targetPoint" />
          </mxGeometry>
        </mxCell>
        <mxCell id="jHklKIk9gbXlQ0zHq7cT-110" value="Math Block" style="shape=umlLifeline;perimeter=lifelinePerimeter;whiteSpace=wrap;html=1;container=1;dropTarget=0;collapsible=0;recursiveResize=0;outlineConnect=0;portConstraint=eastwest;newEdgeStyle={&quot;curved&quot;:0,&quot;rounded&quot;:0};" parent="1" vertex="1">
          <mxGeometry x="295" y="20" width="100" height="300" as="geometry" />
        </mxCell>
        <mxCell id="jHklKIk9gbXlQ0zHq7cT-111" value="" style="html=1;points=[[0,0,0,0,5],[0,1,0,0,-5],[1,0,0,0,5],[1,1,0,0,-5]];perimeter=orthogonalPerimeter;outlineConnect=0;targetShapes=umlLifeline;portConstraint=eastwest;newEdgeStyle={&quot;curved&quot;:0,&quot;rounded&quot;:0};" parent="jHklKIk9gbXlQ0zHq7cT-110" vertex="1">
          <mxGeometry x="45" y="100" width="10" height="100" as="geometry" />
        </mxCell>
        <mxCell id="jHklKIk9gbXlQ0zHq7cT-113" value="New End Block" style="html=1;verticalAlign=bottom;endArrow=block;curved=0;rounded=0;" parent="1" edge="1">
          <mxGeometry width="80" relative="1" as="geometry">
            <mxPoint x="660" y="140" as="sourcePoint" />
            <mxPoint x="360" y="140" as="targetPoint" />
          </mxGeometry>
        </mxCell>
        <mxCell id="jHklKIk9gbXlQ0zHq7cT-114" value="insert values/var" style="html=1;verticalAlign=bottom;endArrow=block;curved=0;rounded=0;" parent="1" edge="1">
          <mxGeometry x="-0.5" width="80" relative="1" as="geometry">
            <mxPoint x="50" y="160" as="sourcePoint" />
            <mxPoint x="330" y="160" as="targetPoint" />
            <mxPoint as="offset" />
          </mxGeometry>
        </mxCell>
        <mxCell id="jHklKIk9gbXlQ0zHq7cT-116" value="CodeList" style="shape=umlLifeline;perimeter=lifelinePerimeter;whiteSpace=wrap;html=1;container=1;dropTarget=0;collapsible=0;recursiveResize=0;outlineConnect=0;portConstraint=eastwest;newEdgeStyle={&quot;curved&quot;:0,&quot;rounded&quot;:0};" parent="1" vertex="1">
          <mxGeometry x="750" y="-230" width="100" height="550" as="geometry" />
        </mxCell>
        <mxCell id="OoItdr83Iqo96f7I1ysh-4" value="" style="html=1;points=[[0,0,0,0,5],[0,1,0,0,-5],[1,0,0,0,5],[1,1,0,0,-5]];perimeter=orthogonalPerimeter;outlineConnect=0;targetShapes=umlLifeline;portConstraint=eastwest;newEdgeStyle={&quot;curved&quot;:0,&quot;rounded&quot;:0};" vertex="1" parent="jHklKIk9gbXlQ0zHq7cT-116">
          <mxGeometry x="45" y="50" width="10" height="180" as="geometry" />
        </mxCell>
        <mxCell id="jHklKIk9gbXlQ0zHq7cT-123" value="alt" style="shape=umlFrame;whiteSpace=wrap;html=1;pointerEvents=0;" parent="1" vertex="1">
          <mxGeometry x="40" y="835" width="560" height="80" as="geometry" />
        </mxCell>
        <mxCell id="jHklKIk9gbXlQ0zHq7cT-125" value="" style="endArrow=none;html=1;rounded=0;" parent="1" edge="1">
          <mxGeometry width="50" height="50" relative="1" as="geometry">
            <mxPoint x="420" y="850" as="sourcePoint" />
            <mxPoint x="500" y="850" as="targetPoint" />
          </mxGeometry>
        </mxCell>
        <mxCell id="jHklKIk9gbXlQ0zHq7cT-126" value="" style="endArrow=classic;html=1;rounded=0;" parent="1" edge="1">
          <mxGeometry width="50" height="50" relative="1" as="geometry">
            <mxPoint x="494" y="1459.17" as="sourcePoint" />
            <mxPoint x="414" y="1459.17" as="targetPoint" />
          </mxGeometry>
        </mxCell>
        <mxCell id="jHklKIk9gbXlQ0zHq7cT-127" value="" style="endArrow=none;html=1;rounded=0;" parent="1" edge="1">
          <mxGeometry width="50" height="50" relative="1" as="geometry">
            <mxPoint x="500" y="850" as="sourcePoint" />
            <mxPoint x="500" y="870" as="targetPoint" />
          </mxGeometry>
        </mxCell>
        <mxCell id="jHklKIk9gbXlQ0zHq7cT-128" value="set Background(red)" style="text;html=1;align=center;verticalAlign=middle;whiteSpace=wrap;rounded=0;" parent="1" vertex="1">
          <mxGeometry x="490" y="870" width="60" height="30" as="geometry" />
        </mxCell>
        <mxCell id="jHklKIk9gbXlQ0zHq7cT-129" value="alt" style="shape=umlFrame;whiteSpace=wrap;html=1;pointerEvents=0;" parent="1" vertex="1">
          <mxGeometry x="50" y="1420" width="560" height="80" as="geometry" />
        </mxCell>
        <mxCell id="jHklKIk9gbXlQ0zHq7cT-130" value="" style="endArrow=none;html=1;rounded=0;" parent="1" edge="1">
          <mxGeometry width="50" height="50" relative="1" as="geometry">
            <mxPoint x="414" y="1440" as="sourcePoint" />
            <mxPoint x="494" y="1440" as="targetPoint" />
          </mxGeometry>
        </mxCell>
        <mxCell id="jHklKIk9gbXlQ0zHq7cT-131" value="" style="endArrow=classic;html=1;rounded=0;" parent="1" edge="1">
          <mxGeometry width="50" height="50" relative="1" as="geometry">
            <mxPoint x="499" y="870" as="sourcePoint" />
            <mxPoint x="419" y="870" as="targetPoint" />
          </mxGeometry>
        </mxCell>
        <mxCell id="jHklKIk9gbXlQ0zHq7cT-132" value="" style="endArrow=none;html=1;rounded=0;" parent="1" edge="1">
          <mxGeometry width="50" height="50" relative="1" as="geometry">
            <mxPoint x="490" y="1440" as="sourcePoint" />
            <mxPoint x="490" y="1460" as="targetPoint" />
          </mxGeometry>
        </mxCell>
        <mxCell id="jHklKIk9gbXlQ0zHq7cT-133" value="set Background(red)" style="text;html=1;align=center;verticalAlign=middle;whiteSpace=wrap;rounded=0;" parent="1" vertex="1">
          <mxGeometry x="490" y="1450" width="60" height="30" as="geometry" />
        </mxCell>
        <mxCell id="jHklKIk9gbXlQ0zHq7cT-134" value="alt" style="shape=umlFrame;whiteSpace=wrap;html=1;pointerEvents=0;" parent="1" vertex="1">
          <mxGeometry x="40" y="170" width="575" height="50" as="geometry" />
        </mxCell>
        <mxCell id="jHklKIk9gbXlQ0zHq7cT-136" value="" style="endArrow=none;html=1;rounded=0;" parent="1" edge="1">
          <mxGeometry width="50" height="50" relative="1" as="geometry">
            <mxPoint x="360" y="180" as="sourcePoint" />
            <mxPoint x="440" y="180" as="targetPoint" />
          </mxGeometry>
        </mxCell>
        <mxCell id="jHklKIk9gbXlQ0zHq7cT-138" value="set Background(red)" style="text;html=1;align=center;verticalAlign=middle;whiteSpace=wrap;rounded=0;" parent="1" vertex="1">
          <mxGeometry x="470" y="190" width="60" height="30" as="geometry" />
        </mxCell>
        <mxCell id="jHklKIk9gbXlQ0zHq7cT-139" value="" style="endArrow=none;html=1;rounded=0;" parent="1" edge="1">
          <mxGeometry width="50" height="50" relative="1" as="geometry">
            <mxPoint x="440" y="180" as="sourcePoint" />
            <mxPoint x="440" y="200" as="targetPoint" />
          </mxGeometry>
        </mxCell>
        <mxCell id="jHklKIk9gbXlQ0zHq7cT-140" value="" style="endArrow=classic;html=1;rounded=0;" parent="1" edge="1">
          <mxGeometry width="50" height="50" relative="1" as="geometry">
            <mxPoint x="440" y="204.16999999999996" as="sourcePoint" />
            <mxPoint x="360" y="204.16999999999996" as="targetPoint" />
          </mxGeometry>
        </mxCell>
        <mxCell id="OoItdr83Iqo96f7I1ysh-1" value="Block Button" style="shape=umlLifeline;perimeter=lifelinePerimeter;whiteSpace=wrap;html=1;container=1;dropTarget=0;collapsible=0;recursiveResize=0;outlineConnect=0;portConstraint=eastwest;newEdgeStyle={&quot;curved&quot;:0,&quot;rounded&quot;:0};" vertex="1" parent="1">
          <mxGeometry x="210" y="-230" width="100" height="430" as="geometry" />
        </mxCell>
        <mxCell id="OoItdr83Iqo96f7I1ysh-8" value="" style="html=1;points=[[0,0,0,0,5],[0,1,0,0,-5],[1,0,0,0,5],[1,1,0,0,-5]];perimeter=orthogonalPerimeter;outlineConnect=0;targetShapes=umlLifeline;portConstraint=eastwest;newEdgeStyle={&quot;curved&quot;:0,&quot;rounded&quot;:0};" vertex="1" parent="OoItdr83Iqo96f7I1ysh-1">
          <mxGeometry x="45" y="50" width="10" height="160" as="geometry" />
        </mxCell>
        <mxCell id="OoItdr83Iqo96f7I1ysh-2" value="DragPanel" style="shape=umlLifeline;perimeter=lifelinePerimeter;whiteSpace=wrap;html=1;container=1;dropTarget=0;collapsible=0;recursiveResize=0;outlineConnect=0;portConstraint=eastwest;newEdgeStyle={&quot;curved&quot;:0,&quot;rounded&quot;:0};" vertex="1" parent="1">
          <mxGeometry x="414" y="-230" width="100" height="430" as="geometry" />
        </mxCell>
        <mxCell id="OoItdr83Iqo96f7I1ysh-5" value="" style="html=1;points=[[0,0,0,0,5],[0,1,0,0,-5],[1,0,0,0,5],[1,1,0,0,-5]];perimeter=orthogonalPerimeter;outlineConnect=0;targetShapes=umlLifeline;portConstraint=eastwest;newEdgeStyle={&quot;curved&quot;:0,&quot;rounded&quot;:0};" vertex="1" parent="OoItdr83Iqo96f7I1ysh-2">
          <mxGeometry x="45" y="130" width="10" height="90" as="geometry" />
        </mxCell>
        <mxCell id="OoItdr83Iqo96f7I1ysh-3" value="alt" style="shape=umlFrame;whiteSpace=wrap;html=1;pointerEvents=0;" vertex="1" parent="1">
          <mxGeometry x="40" y="-10" width="640" height="230" as="geometry" />
        </mxCell>
        <mxCell id="OoItdr83Iqo96f7I1ysh-7" value="clicks" style="html=1;verticalAlign=bottom;endArrow=block;curved=0;rounded=0;" edge="1" parent="1" target="OoItdr83Iqo96f7I1ysh-1">
          <mxGeometry width="80" relative="1" as="geometry">
            <mxPoint x="50" y="-160" as="sourcePoint" />
            <mxPoint x="160" y="-160" as="targetPoint" />
          </mxGeometry>
        </mxCell>
        <mxCell id="OoItdr83Iqo96f7I1ysh-9" value="addMathBlock()" style="html=1;verticalAlign=bottom;endArrow=block;curved=0;rounded=0;" edge="1" parent="1">
          <mxGeometry x="-0.5385" width="80" relative="1" as="geometry">
            <mxPoint x="270" y="-130" as="sourcePoint" />
            <mxPoint x="660" y="-130" as="targetPoint" />
            <mxPoint as="offset" />
          </mxGeometry>
        </mxCell>
        <mxCell id="OoItdr83Iqo96f7I1ysh-10" value="New DragPanel" style="html=1;verticalAlign=bottom;endArrow=block;curved=0;rounded=0;" edge="1" parent="1">
          <mxGeometry width="80" relative="1" as="geometry">
            <mxPoint x="670" y="-90" as="sourcePoint" />
            <mxPoint x="480" y="-90" as="targetPoint" />
          </mxGeometry>
        </mxCell>
        <mxCell id="OoItdr83Iqo96f7I1ysh-11" value="user drags&amp;amp;drops dragpanel next to other block" style="html=1;verticalAlign=bottom;endArrow=block;curved=0;rounded=0;" edge="1" parent="1">
          <mxGeometry x="-0.3" width="80" relative="1" as="geometry">
            <mxPoint x="50" y="-78" as="sourcePoint" />
            <mxPoint x="450" y="-78" as="targetPoint" />
            <mxPoint as="offset" />
          </mxGeometry>
        </mxCell>
        <mxCell id="OoItdr83Iqo96f7I1ysh-12" value="" style="endArrow=none;html=1;rounded=0;" edge="1" parent="1">
          <mxGeometry width="50" height="50" relative="1" as="geometry">
            <mxPoint x="480" y="-59" as="sourcePoint" />
            <mxPoint x="560" y="-59" as="targetPoint" />
          </mxGeometry>
        </mxCell>
        <mxCell id="OoItdr83Iqo96f7I1ysh-13" value="" style="endArrow=classic;html=1;rounded=0;" edge="1" parent="1">
          <mxGeometry width="50" height="50" relative="1" as="geometry">
            <mxPoint x="560" y="-39.00000000000003" as="sourcePoint" />
            <mxPoint x="480" y="-39.00000000000003" as="targetPoint" />
          </mxGeometry>
        </mxCell>
        <mxCell id="OoItdr83Iqo96f7I1ysh-14" value="" style="endArrow=none;html=1;rounded=0;" edge="1" parent="1">
          <mxGeometry width="50" height="50" relative="1" as="geometry">
            <mxPoint x="560" y="-59" as="sourcePoint" />
            <mxPoint x="560" y="-39" as="targetPoint" />
          </mxGeometry>
        </mxCell>
        <mxCell id="OoItdr83Iqo96f7I1ysh-15" value="MouseReleased" style="text;html=1;align=center;verticalAlign=middle;whiteSpace=wrap;rounded=0;" vertex="1" parent="1">
          <mxGeometry x="580" y="-70" width="60" height="30" as="geometry" />
        </mxCell>
        <mxCell id="OoItdr83Iqo96f7I1ysh-16" value="insertRightOf(otherblock,this)" style="html=1;verticalAlign=bottom;endArrow=block;curved=0;rounded=0;" edge="1" parent="1">
          <mxGeometry width="80" relative="1" as="geometry">
            <mxPoint x="470" y="-20" as="sourcePoint" />
            <mxPoint x="780" y="-20" as="targetPoint" />
          </mxGeometry>
        </mxCell>
        <mxCell id="OoItdr83Iqo96f7I1ysh-17" value="Dragpanel is&amp;nbsp; Math type" style="text;html=1;align=center;verticalAlign=middle;whiteSpace=wrap;rounded=0;" vertex="1" parent="1">
          <mxGeometry x="590" y="10" width="60" height="30" as="geometry" />
        </mxCell>
        <mxCell id="OoItdr83Iqo96f7I1ysh-19" value="Dragpanel is If type" style="text;html=1;align=center;verticalAlign=middle;whiteSpace=wrap;rounded=0;" vertex="1" parent="1">
          <mxGeometry x="600" y="690" width="60" height="30" as="geometry" />
        </mxCell>
        <mxCell id="OoItdr83Iqo96f7I1ysh-20" value="Dragpanel is EndIf type" style="text;html=1;align=center;verticalAlign=middle;whiteSpace=wrap;rounded=0;" vertex="1" parent="1">
          <mxGeometry x="590" y="950" width="60" height="30" as="geometry" />
        </mxCell>
        <mxCell id="OoItdr83Iqo96f7I1ysh-21" value="Dragpanel is While type" style="text;html=1;align=center;verticalAlign=middle;whiteSpace=wrap;rounded=0;" vertex="1" parent="1">
          <mxGeometry x="600" y="1260" width="60" height="30" as="geometry" />
        </mxCell>
        <mxCell id="OoItdr83Iqo96f7I1ysh-22" value="Dragpanel is EndWhile type" style="text;html=1;align=center;verticalAlign=middle;whiteSpace=wrap;rounded=0;" vertex="1" parent="1">
          <mxGeometry x="610" y="1610" width="60" height="30" as="geometry" />
        </mxCell>
      </root>
    </mxGraphModel>
  </diagram>
</mxfile>
